<svg width="56.238281" height="69.736328" viewBox="0 0 56.2383 69.7363" fill="none" xmlns="http://www.w3.org/2000/svg" xmlns:xlink="http://www.w3.org/1999/xlink">
	<desc>
			Created with Pixso.
	</desc>
	<defs/>
	<path id="Vector" d="M54.27 20.52L39.08 20.52C38.19 20.52 37.33 20.16 36.7 19.53C36.06 18.9 35.71 18.04 35.71 17.14L35.71 1.96M5.33 1.96C4.44 1.96 3.58 2.31 2.95 2.95C2.31 3.58 1.96 4.44 1.96 5.33L1.96 64.39C1.96 65.29 2.31 66.15 2.95 66.78C3.58 67.41 4.44 67.77 5.33 67.77L50.9 67.77C51.79 67.77 52.65 67.41 53.28 66.78C53.91 66.15 54.27 65.29 54.27 64.39L54.27 20.52L35.71 1.96L5.33 1.96Z" stroke="#212222" stroke-opacity="1.000000" stroke-width="3.924419" stroke-linejoin="round"/>
</svg>