<svg width="64.800781" height="64.799805" viewBox="0 0 64.8008 64.7998" fill="none" xmlns="http://www.w3.org/2000/svg" xmlns:xlink="http://www.w3.org/1999/xlink">
	<desc>
			Created with Pixso.
	</desc>
	<defs/>
	<path id="Vector" d="M32.4 4.04C30.78 4.04 29.24 4.69 28.1 5.82C26.96 6.96 26.32 8.51 26.32 10.12C26.32 11.73 26.96 13.28 28.1 14.42C29.24 15.55 30.78 16.2 32.4 16.2C34.01 16.2 35.55 15.55 36.69 14.42C37.83 13.28 38.47 11.73 38.47 10.12C38.47 8.51 37.83 6.96 36.69 5.82C35.55 4.69 34.01 4.04 32.4 4.04ZM22.27 10.12C22.27 7.43 23.34 4.86 25.24 2.96C27.13 1.06 29.71 0 32.4 0C35.08 0 37.66 1.06 39.55 2.96C41.45 4.86 42.52 7.43 42.52 10.12C42.52 12.81 41.45 15.38 39.55 17.28C37.66 19.18 35.08 20.25 32.4 20.25C29.71 20.25 27.13 19.18 25.24 17.28C23.34 15.38 22.27 12.81 22.27 10.12ZM54.67 8.09C53.6 8.09 52.57 8.52 51.81 9.28C51.05 10.04 50.62 11.07 50.62 12.15C50.62 13.22 51.05 14.25 51.81 15.01C52.57 15.77 53.6 16.2 54.67 16.2C55.75 16.2 56.77 15.77 57.53 15.01C58.29 14.25 58.72 13.22 58.72 12.15C58.72 11.07 58.29 10.04 57.53 9.28C56.77 8.52 55.75 8.09 54.67 8.09ZM46.57 12.15C46.57 10 47.42 7.94 48.94 6.42C50.46 4.9 52.52 4.04 54.67 4.04C56.82 4.04 58.88 4.9 60.4 6.42C61.92 7.94 62.77 10 62.77 12.15C62.77 14.29 61.92 16.35 60.4 17.87C58.88 19.39 56.82 20.25 54.67 20.25C52.52 20.25 50.46 19.39 48.94 17.87C47.42 16.35 46.57 14.29 46.57 12.15ZM6.07 12.15C6.07 11.07 6.5 10.04 7.26 9.28C8.02 8.52 9.05 8.09 10.12 8.09C11.19 8.09 12.22 8.52 12.98 9.28C13.74 10.04 14.17 11.07 14.17 12.15C14.17 13.22 13.74 14.25 12.98 15.01C12.22 15.77 11.19 16.2 10.12 16.2C9.05 16.2 8.02 15.77 7.26 15.01C6.5 14.25 6.07 13.22 6.07 12.15ZM10.12 4.04C7.97 4.04 5.91 4.9 4.39 6.42C2.87 7.94 2.02 10 2.02 12.15C2.02 14.29 2.87 16.35 4.39 17.87C5.91 19.39 7.97 20.25 10.12 20.25C12.27 20.25 14.33 19.39 15.85 17.87C17.37 16.35 18.22 14.29 18.22 12.15C18.22 10 17.37 7.94 15.85 6.42C14.33 4.9 12.27 4.04 10.12 4.04ZM12.55 52.64L12.15 52.65C10 52.65 7.94 51.79 6.42 50.27C4.9 48.75 4.05 46.69 4.05 44.54L4.05 29.36C4.05 29.09 4.15 28.83 4.34 28.64C4.53 28.45 4.79 28.34 5.06 28.34L12.2 28.34C12.36 26.86 12.89 25.48 13.68 24.29L5.06 24.29C2.26 24.29 0 26.56 0 29.36L0 44.54C0 46.28 0.37 47.99 1.08 49.57C1.8 51.15 2.85 52.56 4.15 53.7C5.46 54.84 6.99 55.69 8.65 56.18C10.32 56.68 12.06 56.82 13.78 56.59C13.24 55.32 12.83 53.99 12.55 52.64ZM51.01 56.59C51.54 56.66 52.09 56.7 52.65 56.7C55.87 56.7 58.96 55.41 61.24 53.14C63.51 50.86 64.8 47.77 64.8 44.54L64.8 29.36C64.8 26.56 62.53 24.29 59.73 24.29L51.11 24.29C51.9 25.48 52.43 26.86 52.59 28.34L59.73 28.34C60 28.34 60.26 28.45 60.45 28.64C60.64 28.83 60.75 29.09 60.75 29.36L60.75 44.54C60.75 45.64 60.52 46.73 60.09 47.74C59.66 48.75 59.02 49.66 58.23 50.41C57.43 51.17 56.49 51.76 55.46 52.14C54.43 52.52 53.34 52.69 52.24 52.64C51.97 53.99 51.55 55.32 51.01 56.59ZM21.26 24.29C18.46 24.29 16.19 26.56 16.19 29.36L16.19 48.59C16.19 52.89 17.9 57.01 20.94 60.05C23.98 63.09 28.1 64.79 32.4 64.79C36.69 64.79 40.81 63.09 43.85 60.05C46.89 57.01 48.59 52.89 48.59 48.59L48.59 29.36C48.59 26.56 46.33 24.29 43.53 24.29L21.26 24.29ZM20.25 29.36C20.25 29.09 20.35 28.83 20.54 28.64C20.73 28.45 20.99 28.34 21.26 28.34L43.53 28.34C43.8 28.34 44.06 28.45 44.25 28.64C44.44 28.83 44.55 29.09 44.55 29.36L44.55 48.59C44.55 51.82 43.26 54.91 40.99 57.19C38.71 59.46 35.62 60.75 32.4 60.75C29.17 60.75 26.08 59.46 23.8 57.19C21.52 54.91 20.25 51.82 20.25 48.59L20.25 29.36Z" fill="#212222" fill-opacity="1.000000" fill-rule="nonzero"/>
</svg>
